<?xml version="1.0" standalone="no"?>
<!DOCTYPE svg PUBLIC "-//W3C//DTD SVG 20010904//EN"
 "http://www.w3.org/TR/2001/REC-SVG-20010904/DTD/svg10.dtd">
<svg version="1.0" xmlns="http://www.w3.org/2000/svg"
 width="1280.000000pt" height="640.000000pt" viewBox="0 0 1280.000000 640.000000"
 preserveAspectRatio="xMidYMid meet">
<g transform="translate(0.000000,640.000000) scale(0.100000,-0.100000)"
fill="#000000" stroke="none">
<path d="M6220 4455 c-131 -27 -200 -63 -268 -141 -42 -46 -72 -121 -72 -173
1 -39 35 -107 64 -126 30 -20 94 -30 131 -21 71 18 100 112 50 161 -28 29 -70
32 -103 9 -12 -8 -22 -24 -22 -34 0 -17 5 -19 43 -14 32 5 46 2 56 -10 31 -37
-14 -86 -77 -86 -59 0 -122 69 -122 132 1 38 35 101 74 136 89 78 211 112 400
112 202 0 338 -39 405 -116 26 -29 31 -43 31 -85 0 -27 -6 -64 -14 -82 -18
-43 -64 -87 -91 -87 -25 0 -55 29 -55 53 0 20 38 47 67 47 32 0 37 16 12 41
-39 39 -109 6 -125 -57 -14 -56 41 -114 106 -114 65 0 140 104 140 193 0 144
-237 279 -487 276 -43 0 -107 -7 -143 -14z"/>
<path d="M6220 3943 c-32 -12 -50 -37 -50 -70 0 -39 17 -45 22 -6 2 14 15 35
30 46 23 17 31 18 56 8 46 -19 76 -57 76 -95 0 -101 -179 -195 -430 -227 -136
-17 -555 -6 -814 21 -324 34 -660 15 -835 -47 -110 -39 -115 -40 -115 -10 0
57 101 133 230 171 87 26 236 46 350 46 142 0 310 -22 583 -76 126 -25 266
-49 313 -55 144 -16 393 17 538 71 60 23 137 82 124 96 -4 4 -29 -3 -55 -14
-57 -24 -270 -48 -346 -38 -105 14 -154 54 -123 101 22 33 76 42 128 21 50
-19 60 -14 23 10 -15 10 -50 19 -78 22 -42 3 -57 0 -79 -18 -37 -28 -38 -77
-3 -119 39 -46 80 -55 217 -47 133 8 154 -3 61 -30 -119 -35 -269 -16 -413 52
-91 43 -110 59 -110 93 0 32 -8 44 -37 60 -40 21 -60 14 -67 -23 -9 -48 1 -64
48 -77 22 -6 73 -28 111 -48 39 -21 91 -46 118 -56 26 -10 47 -22 47 -26 0
-24 -219 5 -555 71 -324 64 -458 77 -613 61 -286 -29 -414 -99 -444 -242 -11
-55 -17 -66 -53 -91 -22 -15 -58 -54 -80 -85 -22 -31 -45 -58 -50 -60 -6 -2
-19 13 -30 34 -24 44 -69 73 -114 73 -40 0 -121 -44 -121 -65 0 -19 18 -19 50
0 83 48 180 -18 180 -122 0 -46 -47 -132 -89 -162 l-29 -21 -103 50 c-57 27
-202 82 -321 121 -128 41 -218 76 -218 83 0 17 37 50 79 71 57 29 120 24 178
-13 58 -37 73 -40 73 -11 0 43 -154 82 -236 60 -37 -10 -68 -30 -145 -91 -25
-21 -27 -21 -115 -6 -113 20 -325 21 -435 1 -148 -26 -294 -87 -428 -178 -54
-37 -86 -38 -166 -7 -125 48 -277 36 -375 -29 -66 -44 -93 -91 -98 -165 -9
-140 99 -248 275 -276 37 -6 72 -15 77 -20 5 -5 9 -30 10 -55 1 -65 -16 -75
-123 -75 -68 0 -93 4 -119 20 -18 11 -43 20 -57 20 -13 0 -27 5 -30 10 -3 6
-17 10 -29 10 -13 0 -29 7 -37 16 -9 11 -22 14 -41 10 -24 -5 -31 -1 -40 19
-7 16 -20 25 -33 25 -12 0 -30 9 -40 20 -10 11 -26 20 -35 20 -10 0 -45 18
-78 40 -38 26 -71 40 -91 40 -34 0 -111 34 -111 49 0 20 54 50 107 61 87 18
173 9 222 -23 50 -33 74 -35 69 -5 -2 17 -19 28 -78 49 -41 16 -96 28 -121 28
-59 1 -140 -23 -207 -61 -50 -28 -59 -30 -120 -24 -162 16 -264 18 -324 6
-198 -39 -299 -137 -330 -321 -11 -67 -16 -78 -64 -130 -29 -32 -62 -75 -72
-96 -26 -51 -62 -173 -62 -210 0 -44 38 -129 64 -143 54 -28 167 -7 174 34 7
34 -13 36 -58 6 -55 -36 -83 -38 -115 -5 -31 30 -31 57 -5 171 21 91 51 155
99 213 31 38 45 36 65 -13 21 -50 74 -105 130 -133 75 -39 203 -44 265 -11 44
22 71 51 60 63 -4 3 -30 -6 -60 -20 -67 -31 -129 -32 -204 -4 -65 24 -161 109
-171 151 -9 42 34 78 141 118 78 29 105 34 200 38 61 2 128 -1 150 -5 l40 -9
6 -80 c5 -65 13 -93 39 -142 57 -107 167 -220 257 -262 144 -67 361 -84 528
-41 90 23 250 92 304 130 41 30 54 27 89 -23 36 -50 102 -107 184 -160 54 -34
61 -36 142 -36 l85 0 26 34 c48 63 53 146 10 162 -24 10 -27 -1 -14 -45 11
-38 10 -43 -15 -81 -42 -64 -106 -66 -204 -8 -66 40 -212 177 -212 199 0 9 40
53 90 98 50 46 90 89 90 97 0 30 -34 11 -110 -61 -43 -41 -84 -75 -90 -75 -13
0 -50 60 -50 82 0 10 20 27 51 43 58 29 129 82 129 96 0 19 -37 8 -88 -26 -73
-50 -98 -58 -117 -39 -8 9 -15 31 -15 49 0 39 20 57 85 74 49 13 117 51 123
69 7 21 -34 13 -109 -23 -89 -43 -112 -37 -107 28 3 47 7 50 132 93 81 28 136
60 144 82 6 19 -24 14 -81 -14 -56 -29 -169 -45 -181 -26 -3 6 2 32 12 59 l18
48 74 12 c62 10 80 18 102 43 40 43 44 71 18 124 -13 24 -20 52 -16 61 12 34
299 149 462 186 81 19 469 19 502 1 20 -12 23 -20 20 -65 l-3 -52 -190 -6
c-213 -7 -263 -18 -413 -92 -175 -86 -276 -251 -277 -452 0 -119 27 -178 97
-213 95 -48 173 9 110 80 -23 27 -48 21 -72 -17 -12 -19 -28 -35 -36 -35 -8 0
-26 24 -39 53 -32 68 -34 185 -5 278 37 118 155 243 286 302 101 45 171 59
320 64 184 7 232 -3 294 -61 57 -53 105 -79 191 -101 120 -32 271 -19 389 34
48 22 59 20 114 -21 22 -15 44 -28 48 -28 20 0 5 28 -34 62 l-43 37 35 36 c61
64 65 64 102 -12 43 -88 89 -117 188 -117 73 -1 118 19 154 67 19 26 19 30 6
69 -14 40 -60 81 -75 66 -3 -3 4 -26 16 -51 26 -53 21 -89 -17 -113 -51 -34
-159 -12 -217 44 -58 56 -72 188 -29 285 23 53 101 137 127 137 10 0 32 -17
50 -37 28 -32 38 -38 75 -38 34 0 47 6 66 28 33 39 21 51 -25 25 -33 -19 -42
-20 -68 -9 -17 7 -36 24 -44 38 -12 23 -11 27 9 43 12 10 62 28 110 39 140 33
265 42 404 31 448 -38 907 -42 1120 -11 73 10 162 22 198 26 139 15 265 70
343 151 l38 39 19 -25 c11 -14 29 -37 40 -52 12 -16 54 -43 93 -62 187 -88
489 -116 1027 -94 465 18 775 16 863 -5 98 -24 167 -56 167 -77 0 -43 -74 -66
-114 -35 -25 19 -47 19 -40 1 16 -41 109 -48 152 -11 44 37 74 32 122 -17 132
-137 129 -316 -5 -404 -54 -35 -166 -13 -201 41 -18 27 -11 46 30 84 41 39 32
65 -15 41 -21 -12 -49 -60 -49 -85 0 -36 34 -88 66 -101 43 -18 115 -18 159 0
47 20 111 89 131 142 9 24 22 44 28 44 14 0 76 -75 76 -92 0 -7 -19 -29 -42
-50 -39 -34 -41 -37 -19 -38 13 0 36 11 53 25 38 32 51 31 167 -6 121 -39 223
-47 308 -26 91 24 174 69 216 119 20 24 45 53 55 64 26 29 116 38 272 25 220
-18 364 -70 469 -167 73 -67 116 -141 141 -238 31 -124 23 -207 -26 -273 -32
-42 -52 -42 -56 -2 -4 44 -29 58 -62 36 -29 -20 -35 -61 -13 -91 19 -26 90
-25 125 1 51 37 72 96 72 204 0 259 -150 444 -425 524 -99 28 -285 48 -380 39
-76 -6 -109 9 -113 52 -2 18 3 36 11 43 23 18 246 34 392 28 199 -9 324 -41
486 -123 129 -66 124 -60 99 -118 -47 -104 12 -176 145 -176 47 0 57 -3 71
-25 9 -13 18 -42 21 -65 5 -39 5 -40 -23 -40 -16 0 -64 7 -107 15 -102 19
-113 19 -97 0 16 -20 132 -55 181 -55 49 0 79 -27 79 -73 0 -18 -6 -41 -13
-52 -17 -22 -65 -18 -168 16 -64 21 -95 21 -73 0 5 -5 54 -21 109 -36 131 -36
135 -38 135 -81 0 -49 -16 -74 -46 -74 -31 0 -87 23 -121 50 -27 21 -63 27
-63 10 0 -5 41 -30 91 -56 l91 -47 -5 -40 c-3 -22 -12 -47 -21 -55 -13 -14
-19 -12 -58 13 -24 15 -61 42 -83 60 -52 41 -78 51 -73 28 2 -10 32 -40 68
-66 36 -26 78 -58 95 -71 l29 -23 -32 -50 c-42 -65 -121 -139 -175 -163 -28
-13 -65 -20 -108 -20 -79 0 -109 18 -127 79 -14 46 -29 60 -38 36 -10 -25 13
-89 42 -116 23 -22 33 -24 117 -23 139 1 216 44 303 169 23 34 45 55 56 55 10
0 51 -18 91 -39 40 -22 113 -52 162 -67 82 -25 105 -28 255 -28 144 -1 175 2
245 22 238 69 380 216 406 422 6 47 14 92 19 100 6 12 34 16 138 18 121 2 136
1 224 -28 96 -30 128 -52 128 -85 0 -34 -40 -103 -82 -140 -79 -72 -161 -91
-263 -60 -27 9 -56 13 -63 10 -25 -9 7 -34 66 -51 148 -43 309 36 359 175 10
28 23 51 30 51 7 0 31 -24 54 -52 115 -145 145 -343 61 -408 -22 -18 -35 -20
-74 -15 -39 6 -48 4 -48 -8 0 -29 83 -36 136 -11 41 20 84 87 84 133 0 52 -39
192 -67 241 -15 25 -53 73 -85 107 -54 55 -61 69 -79 139 -33 132 -90 204
-208 264 -98 49 -276 65 -393 35 -68 -18 -87 -14 -146 31 -23 17 -65 38 -94
44 -76 19 -256 0 -265 -26 -2 -7 41 -10 124 -10 115 1 134 -2 188 -24 35 -14
60 -31 60 -40 0 -8 -22 -23 -50 -33 -27 -11 -62 -26 -77 -33 -14 -8 -37 -14
-51 -14 -13 0 -30 -7 -37 -15 -7 -8 -22 -15 -35 -15 -12 0 -30 -9 -40 -20 -10
-11 -31 -20 -47 -20 -15 0 -28 -4 -28 -10 0 -5 -12 -12 -27 -16 -39 -9 -170
-70 -178 -83 -3 -6 -16 -11 -28 -11 -13 0 -33 -7 -45 -16 -13 -9 -42 -18 -65
-20 -23 -2 -66 -6 -94 -10 -50 -6 -53 -5 -63 21 -12 32 -13 85 -1 103 5 8 37
20 72 27 84 18 105 27 157 64 85 63 136 183 113 269 -15 54 -59 104 -119 133
-42 21 -61 24 -177 24 -125 0 -133 -1 -205 -33 -41 -17 -79 -32 -85 -32 -6 0
-46 25 -90 56 -168 118 -281 153 -520 161 -122 4 -185 1 -265 -12 -199 -32
-189 -32 -245 14 -78 65 -187 77 -263 31 -18 -11 -32 -27 -32 -35 0 -19 -4
-19 54 10 79 40 153 33 224 -22 45 -34 33 -44 -92 -78 -121 -32 -203 -65 -366
-144 -69 -34 -133 -61 -143 -61 -43 0 -106 107 -107 182 0 39 6 54 29 80 24
27 36 32 72 33 24 0 59 -4 77 -8 25 -7 32 -5 32 5 0 24 -45 58 -83 65 -81 13
-140 -29 -157 -112 -14 -68 -32 -71 -56 -9 -13 35 -34 59 -86 101 -58 47 -68
60 -68 87 0 17 -11 54 -24 82 -75 160 -179 199 -536 199 -237 -1 -355 -14
-565 -66 -161 -39 -321 -68 -425 -75 -105 -8 -99 3 25 46 50 18 105 43 123 57
18 13 52 33 77 44 30 13 47 28 51 44 9 35 -12 65 -44 65 -41 0 -55 -14 -61
-62 -5 -38 -12 -47 -53 -75 -105 -70 -307 -113 -443 -94 -119 17 -168 50 -77
52 26 1 36 4 22 6 -14 2 -62 15 -106 29 -92 27 -118 30 -112 12 13 -41 202
-118 338 -139 104 -16 322 -5 510 26 398 65 473 75 590 83 69 5 175 5 236 1
254 -18 385 -79 430 -196 26 -66 11 -72 -83 -30 -90 40 -95 41 -230 61 -277
42 -488 41 -848 -4 -328 -42 -506 -38 -726 16 -123 30 -198 64 -238 109 -75
86 -35 195 71 195 41 0 58 -11 74 -47 l12 -28 1 32 c2 58 -72 90 -143 63 -14
-5 -40 -23 -58 -40 l-32 -31 -24 27 c-40 43 -107 64 -152 47z m3428 -635 c7
-7 12 -27 12 -45 0 -43 -22 -56 -145 -83 -108 -24 -185 -53 -185 -69 0 -17 20
-13 126 23 54 19 116 38 137 41 33 7 37 5 37 -14 0 -17 -15 -29 -72 -56 -118
-56 -182 -68 -337 -63 -213 6 -233 32 -84 105 80 38 451 170 489 172 5 1 15
-4 22 -11z m-6345 -72 c156 -46 437 -166 437 -187 0 -5 -17 -17 -37 -27 -46
-20 -266 -21 -366 -2 -66 12 -137 46 -145 68 -5 17 22 15 113 -8 88 -23 105
-24 105 -10 0 10 -63 30 -183 55 -46 10 -87 25 -98 36 -19 19 -25 62 -12 94 8
22 63 16 186 -19z m7858 -43 c73 -41 119 -107 119 -174 0 -40 -5 -54 -32 -85
-18 -21 -59 -49 -91 -65 -78 -37 -185 -65 -198 -52 -16 16 -48 109 -41 120 4
6 25 19 47 31 50 25 88 65 83 87 -2 14 -11 11 -53 -19 -93 -67 -92 -67 -142
-11 -24 28 -55 67 -70 87 -33 48 -23 61 66 87 94 28 108 30 187 27 58 -2 82
-9 125 -33z m-9285 -64 c93 -16 134 -29 134 -41 0 -13 -87 -153 -105 -168 -14
-12 -26 -7 -103 42 -51 31 -64 8 -16 -28 98 -76 96 -73 84 -132 -16 -73 -28
-77 -145 -47 -122 31 -154 49 -182 105 -41 80 -24 163 45 220 69 56 161 72
288 49z m8903 -59 c66 -79 77 -100 60 -111 -16 -10 -63 -2 -101 17 -32 16 -58
51 -58 77 0 23 28 77 40 77 5 0 32 -27 59 -60z m-8687 -55 c23 -51 -20 -102
-100 -120 -51 -11 -51 15 3 85 51 66 78 76 97 35z m10188 -105 c82 -24 171
-87 205 -143 34 -58 57 -129 47 -139 -6 -6 -53 6 -113 28 -100 36 -109 37
-243 38 l-140 1 -21 56 c-12 31 -34 73 -49 95 -40 59 -36 72 27 78 141 16 192
13 287 -14z m-333 -105 c63 -118 61 -121 -77 -167 -63 -21 -180 -71 -260 -112
-216 -109 -256 -121 -425 -121 -146 0 -229 14 -239 42 -7 17 12 102 27 121 11
15 59 16 109 2 30 -9 42 -7 71 10 28 17 40 19 62 10 22 -8 31 -7 45 5 9 8 28
15 43 15 14 0 29 5 32 10 3 6 14 10 24 10 10 0 24 7 31 15 7 8 22 15 35 15 12
0 30 9 40 20 10 11 28 20 39 20 12 0 27 9 34 20 7 12 23 20 41 20 16 0 31 6
35 15 3 8 16 15 29 15 13 0 32 9 42 20 10 11 28 20 40 20 12 0 30 10 41 21 32
36 77 60 109 57 26 -3 35 -13 72 -83z m-11140 16 c29 -4 56 -10 59 -14 6 -6
-43 -125 -75 -187 -6 -10 -22 -15 -52 -14 -231 8 -274 2 -411 -56 -77 -33 -93
-29 -81 20 30 125 149 214 338 254 33 6 167 5 222 -3z m243 -92 c41 -27 83
-49 92 -49 9 0 20 -4 23 -10 3 -5 15 -10 25 -10 11 0 27 -8 37 -18 25 -26 91
-62 112 -62 10 0 26 -9 36 -20 10 -11 29 -20 43 -20 14 0 34 -8 44 -17 15 -13
38 -17 96 -18 43 0 89 -7 104 -14 21 -11 36 -11 72 -2 82 20 105 16 122 -25 8
-20 14 -50 12 -68 -3 -29 -6 -32 -63 -44 -33 -7 -114 -15 -180 -19 -145 -7
-172 0 -383 93 -81 36 -205 85 -276 109 -75 25 -133 50 -138 60 -11 19 40 129
80 172 28 30 42 27 142 -38z m10957 -115 c11 -29 -17 -147 -49 -206 -59 -111
-175 -191 -324 -223 -102 -23 -259 -30 -324 -16 -30 7 -93 16 -140 21 -116 11
-272 64 -284 96 -3 8 5 36 17 62 26 54 20 52 162 32 107 -15 229 -8 364 21
131 29 224 65 394 153 80 42 153 76 162 76 9 0 18 -7 22 -16z m-11040 -145
c291 -138 408 -172 603 -172 95 0 146 5 213 21 49 12 93 19 98 16 13 -8 49
-80 49 -99 0 -24 -86 -73 -190 -106 -81 -26 -120 -33 -260 -41 -150 -9 -174
-8 -263 10 -230 48 -341 147 -392 350 -16 59 -14 82 5 82 5 0 67 -27 137 -61z"/>
<path d="M6866 3940 c-29 -9 -66 -37 -66 -51 0 -4 19 1 43 11 23 11 60 20 82
20 124 0 109 -125 -18 -149 -29 -5 -74 -14 -102 -19 l-50 -10 44 -1 c85 -2
173 19 203 50 76 76 -23 185 -136 149z"/>
</g>
</svg>
